<svg id="Layer_1" data-name="Layer 1" xmlns="http://www.w3.org/2000/svg" viewBox="0 0 343.32 173.36"><defs><style>.cls-1{fill:#f10100;}</style></defs><path d="M133.9,324.46h43.34c31.5,0,39.51,19,39.51,34.46,0,15.67-11.66,30.46-30.29,32.55l35,56.22H200.56l-31.33-54.3H150.61v54.3H133.9Zm16.71,54.31h21.93c13.23,0,26.45-3.14,26.45-19.85s-13.22-19.84-26.45-19.84H150.61Z" transform="translate(-133.9 -316.11)"/><path d="M223.54,375.28c8.7-8.18,21.23-12.18,32.72-12.18,24.37,0,34.46,13.23,34.46,27.5v42.12a127.52,127.52,0,0,0,.7,15H277.49q-.51-6.26-.52-12.53h-.35c-7,10.62-16.36,14.62-28.89,14.62-15.32,0-28.54-8.7-28.54-24.71,0-21.24,20.36-28.55,45.42-28.55H276.1V393c0-8.53-6.26-17.41-19.67-17.41-12,0-17.75,5.05-23.49,9.4ZM267.75,408c-14.8,0-32.9,2.61-32.9,15.84,0,9.4,7,13.4,17.75,13.4,17.41,0,23.5-12.88,23.5-24V408Z" transform="translate(-133.9 -316.11)"/><path d="M317.35,365.19v94.34c0,8.53-.17,29.94-25.24,29.94A28.45,28.45,0,0,1,282,487.9l1.74-14.45a20.18,20.18,0,0,0,6.44,1.4c8.53,0,11.49-5.57,11.49-16V365.19Zm-7.83-41.08A11.49,11.49,0,1,1,298,335.6,11.59,11.59,0,0,1,309.52,324.11Z" transform="translate(-133.9 -316.11)"/><path class="cls-1" d="M330.41,316.11h15.66V447.69H330.41Z" transform="translate(-133.9 -316.11)"/><path class="cls-1" d="M413.75,363.1c24.55,0,43.87,19.32,43.87,43.34s-19.32,43.34-43.87,43.34-43.86-19.32-43.86-43.34S389.21,363.1,413.75,363.1Zm0,72.06c16.71,0,27.16-12,27.16-28.72s-10.45-28.72-27.16-28.72-27.15,12-27.15,28.72S397,435.16,413.75,435.16Z" transform="translate(-133.9 -316.11)"/><path class="cls-1" d="M413.53,339.93a64.37,64.37,0,0,0-63.7,55.7H365a49.27,49.27,0,0,1,97,0h15.18A64.37,64.37,0,0,0,413.53,339.93Z" transform="translate(-133.9 -316.11)"/></svg>